<mxfile host="app.diagrams.net" modified="2023-02-24T09:29:03.958Z" agent="5.0 (Windows NT 10.0; Win64; x64) AppleWebKit/537.36 (KHTML, like Gecko) Chrome/83.0.4103.97 Safari/537.36" etag="v9IG048PVJXsmB129YHl" version="20.8.22" type="github">
  <diagram name="第 1 页" id="Wv9FTvvUGGn269zvBbR8">
    <mxGraphModel dx="1647" dy="904" grid="1" gridSize="10" guides="1" tooltips="1" connect="1" arrows="1" fold="1" page="1" pageScale="1" pageWidth="827" pageHeight="1169" math="0" shadow="0">
      <root>
        <mxCell id="0" />
        <mxCell id="1" parent="0" />
        <mxCell id="ahzqgUpgInwMWs76WxfJ-1" value="0" style="ellipse;whiteSpace=wrap;html=1;aspect=fixed;fillColor=#fff2cc;strokeColor=#d6b656;" parent="1" vertex="1">
          <mxGeometry x="190" y="580" width="80" height="80" as="geometry" />
        </mxCell>
        <mxCell id="ahzqgUpgInwMWs76WxfJ-2" value="2" style="ellipse;whiteSpace=wrap;html=1;aspect=fixed;fillColor=#fff2cc;strokeColor=#d6b656;" parent="1" vertex="1">
          <mxGeometry x="440" y="470" width="80" height="80" as="geometry" />
        </mxCell>
        <mxCell id="ahzqgUpgInwMWs76WxfJ-3" value="1" style="ellipse;whiteSpace=wrap;html=1;aspect=fixed;fillColor=#fff2cc;strokeColor=#d6b656;" parent="1" vertex="1">
          <mxGeometry x="440" y="670" width="80" height="80" as="geometry" />
        </mxCell>
        <mxCell id="ahzqgUpgInwMWs76WxfJ-4" value="4" style="ellipse;whiteSpace=wrap;html=1;aspect=fixed;" parent="1" vertex="1">
          <mxGeometry x="700" y="470" width="80" height="80" as="geometry" />
        </mxCell>
        <mxCell id="ahzqgUpgInwMWs76WxfJ-5" value="3" style="ellipse;whiteSpace=wrap;html=1;aspect=fixed;fillColor=#fff2cc;strokeColor=#d6b656;" parent="1" vertex="1">
          <mxGeometry x="700" y="673" width="80" height="80" as="geometry" />
        </mxCell>
        <mxCell id="ahzqgUpgInwMWs76WxfJ-6" value="" style="endArrow=none;html=1;rounded=0;entryX=1;entryY=1;entryDx=0;entryDy=0;exitX=0;exitY=0.5;exitDx=0;exitDy=0;" parent="1" source="ahzqgUpgInwMWs76WxfJ-3" target="ahzqgUpgInwMWs76WxfJ-1" edge="1">
          <mxGeometry width="50" height="50" relative="1" as="geometry">
            <mxPoint x="140" y="760" as="sourcePoint" />
            <mxPoint x="190" y="710" as="targetPoint" />
          </mxGeometry>
        </mxCell>
        <mxCell id="ahzqgUpgInwMWs76WxfJ-9" value="4" style="text;html=1;strokeColor=none;fillColor=none;align=center;verticalAlign=middle;whiteSpace=wrap;rounded=0;" parent="1" vertex="1">
          <mxGeometry x="289" y="673" width="60" height="30" as="geometry" />
        </mxCell>
        <mxCell id="ahzqgUpgInwMWs76WxfJ-10" value="" style="endArrow=none;html=1;rounded=0;entryX=0.013;entryY=0.599;entryDx=0;entryDy=0;entryPerimeter=0;exitX=1;exitY=0;exitDx=0;exitDy=0;" parent="1" source="ahzqgUpgInwMWs76WxfJ-1" target="ahzqgUpgInwMWs76WxfJ-2" edge="1">
          <mxGeometry width="50" height="50" relative="1" as="geometry">
            <mxPoint x="210" y="530" as="sourcePoint" />
            <mxPoint x="260" y="480" as="targetPoint" />
          </mxGeometry>
        </mxCell>
        <mxCell id="ahzqgUpgInwMWs76WxfJ-11" value="2" style="text;html=1;strokeColor=none;fillColor=none;align=center;verticalAlign=middle;whiteSpace=wrap;rounded=0;" parent="1" vertex="1">
          <mxGeometry x="990" y="800" width="60" height="30" as="geometry" />
        </mxCell>
        <mxCell id="ahzqgUpgInwMWs76WxfJ-12" value="" style="endArrow=none;html=1;rounded=0;" parent="1" source="ahzqgUpgInwMWs76WxfJ-3" target="ahzqgUpgInwMWs76WxfJ-2" edge="1">
          <mxGeometry width="50" height="50" relative="1" as="geometry">
            <mxPoint x="580" y="600" as="sourcePoint" />
            <mxPoint x="630" y="550" as="targetPoint" />
          </mxGeometry>
        </mxCell>
        <mxCell id="ahzqgUpgInwMWs76WxfJ-13" value="1" style="text;html=1;strokeColor=none;fillColor=none;align=center;verticalAlign=middle;whiteSpace=wrap;rounded=0;" parent="1" vertex="1">
          <mxGeometry x="430" y="590" width="60" height="30" as="geometry" />
        </mxCell>
        <mxCell id="ahzqgUpgInwMWs76WxfJ-14" value="2" style="text;html=1;strokeColor=none;fillColor=none;align=center;verticalAlign=middle;whiteSpace=wrap;rounded=0;" parent="1" vertex="1">
          <mxGeometry x="290" y="530" width="60" height="30" as="geometry" />
        </mxCell>
        <mxCell id="ahzqgUpgInwMWs76WxfJ-15" value="" style="endArrow=none;html=1;rounded=0;entryX=0.026;entryY=0.617;entryDx=0;entryDy=0;entryPerimeter=0;exitX=0.971;exitY=0.654;exitDx=0;exitDy=0;exitPerimeter=0;" parent="1" source="ahzqgUpgInwMWs76WxfJ-3" target="ahzqgUpgInwMWs76WxfJ-5" edge="1">
          <mxGeometry width="50" height="50" relative="1" as="geometry">
            <mxPoint x="600" y="860" as="sourcePoint" />
            <mxPoint x="650" y="810" as="targetPoint" />
          </mxGeometry>
        </mxCell>
        <mxCell id="ahzqgUpgInwMWs76WxfJ-16" value="2" style="text;html=1;strokeColor=none;fillColor=none;align=center;verticalAlign=middle;whiteSpace=wrap;rounded=0;" parent="1" vertex="1">
          <mxGeometry x="570" y="695" width="60" height="30" as="geometry" />
        </mxCell>
        <mxCell id="ahzqgUpgInwMWs76WxfJ-17" value="" style="endArrow=none;html=1;rounded=0;" parent="1" source="ahzqgUpgInwMWs76WxfJ-3" target="ahzqgUpgInwMWs76WxfJ-4" edge="1">
          <mxGeometry width="50" height="50" relative="1" as="geometry">
            <mxPoint x="580" y="620" as="sourcePoint" />
            <mxPoint x="630" y="570" as="targetPoint" />
          </mxGeometry>
        </mxCell>
        <mxCell id="ahzqgUpgInwMWs76WxfJ-18" value="3" style="text;html=1;strokeColor=none;fillColor=none;align=center;verticalAlign=middle;whiteSpace=wrap;rounded=0;" parent="1" vertex="1">
          <mxGeometry x="520" y="620" width="60" height="30" as="geometry" />
        </mxCell>
        <mxCell id="ahzqgUpgInwMWs76WxfJ-19" value="" style="endArrow=none;html=1;rounded=0;" parent="1" source="ahzqgUpgInwMWs76WxfJ-2" target="ahzqgUpgInwMWs76WxfJ-5" edge="1">
          <mxGeometry width="50" height="50" relative="1" as="geometry">
            <mxPoint x="540" y="560" as="sourcePoint" />
            <mxPoint x="620" y="520" as="targetPoint" />
          </mxGeometry>
        </mxCell>
        <mxCell id="ahzqgUpgInwMWs76WxfJ-20" value="4" style="text;html=1;strokeColor=none;fillColor=none;align=center;verticalAlign=middle;whiteSpace=wrap;rounded=0;" parent="1" vertex="1">
          <mxGeometry x="640" y="620" width="60" height="30" as="geometry" />
        </mxCell>
        <mxCell id="ahzqgUpgInwMWs76WxfJ-21" value="" style="endArrow=none;html=1;rounded=0;exitX=1;exitY=0.5;exitDx=0;exitDy=0;entryX=0;entryY=0.5;entryDx=0;entryDy=0;" parent="1" source="ahzqgUpgInwMWs76WxfJ-2" target="ahzqgUpgInwMWs76WxfJ-4" edge="1">
          <mxGeometry width="50" height="50" relative="1" as="geometry">
            <mxPoint x="590" y="500" as="sourcePoint" />
            <mxPoint x="640" y="450" as="targetPoint" />
          </mxGeometry>
        </mxCell>
        <mxCell id="ahzqgUpgInwMWs76WxfJ-22" value="5" style="text;html=1;strokeColor=none;fillColor=none;align=center;verticalAlign=middle;whiteSpace=wrap;rounded=0;" parent="1" vertex="1">
          <mxGeometry x="570" y="475" width="60" height="30" as="geometry" />
        </mxCell>
        <mxCell id="ahzqgUpgInwMWs76WxfJ-23" value="" style="endArrow=none;html=1;rounded=0;entryX=0.5;entryY=1;entryDx=0;entryDy=0;" parent="1" source="ahzqgUpgInwMWs76WxfJ-5" target="ahzqgUpgInwMWs76WxfJ-4" edge="1">
          <mxGeometry width="50" height="50" relative="1" as="geometry">
            <mxPoint x="790" y="640" as="sourcePoint" />
            <mxPoint x="790" y="590" as="targetPoint" />
          </mxGeometry>
        </mxCell>
        <mxCell id="ahzqgUpgInwMWs76WxfJ-24" value="1" style="text;html=1;strokeColor=none;fillColor=none;align=center;verticalAlign=middle;whiteSpace=wrap;rounded=0;" parent="1" vertex="1">
          <mxGeometry x="727" y="590" width="60" height="30" as="geometry" />
        </mxCell>
        <mxCell id="X-wp94Bt1LsfMgyJlWC4-1" value="dis" style="text;html=1;strokeColor=none;fillColor=none;align=center;verticalAlign=middle;whiteSpace=wrap;rounded=0;" vertex="1" parent="1">
          <mxGeometry x="130" y="850" width="60" height="30" as="geometry" />
        </mxCell>
        <mxCell id="X-wp94Bt1LsfMgyJlWC4-2" value="0" style="text;html=1;strokeColor=none;fillColor=none;align=center;verticalAlign=middle;whiteSpace=wrap;rounded=0;" vertex="1" parent="1">
          <mxGeometry x="210" y="850" width="60" height="30" as="geometry" />
        </mxCell>
        <mxCell id="X-wp94Bt1LsfMgyJlWC4-3" value="1" style="text;html=1;strokeColor=none;fillColor=none;align=center;verticalAlign=middle;whiteSpace=wrap;rounded=0;" vertex="1" parent="1">
          <mxGeometry x="280" y="850" width="60" height="30" as="geometry" />
        </mxCell>
        <mxCell id="X-wp94Bt1LsfMgyJlWC4-4" value="4" style="text;html=1;strokeColor=none;fillColor=none;align=center;verticalAlign=middle;whiteSpace=wrap;rounded=0;" vertex="1" parent="1">
          <mxGeometry x="460" y="850" width="60" height="30" as="geometry" />
        </mxCell>
        <mxCell id="X-wp94Bt1LsfMgyJlWC4-5" value="3" style="text;html=1;strokeColor=none;fillColor=none;align=center;verticalAlign=middle;whiteSpace=wrap;rounded=0;" vertex="1" parent="1">
          <mxGeometry x="400" y="850" width="60" height="30" as="geometry" />
        </mxCell>
        <mxCell id="X-wp94Bt1LsfMgyJlWC4-6" value="2" style="text;html=1;strokeColor=none;fillColor=none;align=center;verticalAlign=middle;whiteSpace=wrap;rounded=0;" vertex="1" parent="1">
          <mxGeometry x="340" y="850" width="60" height="30" as="geometry" />
        </mxCell>
        <mxCell id="X-wp94Bt1LsfMgyJlWC4-7" value="0" style="text;html=1;strokeColor=none;fillColor=none;align=center;verticalAlign=middle;whiteSpace=wrap;rounded=0;" vertex="1" parent="1">
          <mxGeometry x="210" y="810" width="60" height="30" as="geometry" />
        </mxCell>
        <mxCell id="X-wp94Bt1LsfMgyJlWC4-8" value="3" style="text;html=1;strokeColor=none;fillColor=none;align=center;verticalAlign=middle;whiteSpace=wrap;rounded=0;" vertex="1" parent="1">
          <mxGeometry x="280" y="810" width="60" height="30" as="geometry" />
        </mxCell>
        <mxCell id="X-wp94Bt1LsfMgyJlWC4-9" value="2" style="text;html=1;strokeColor=none;fillColor=none;align=center;verticalAlign=middle;whiteSpace=wrap;rounded=0;" vertex="1" parent="1">
          <mxGeometry x="340" y="810" width="60" height="30" as="geometry" />
        </mxCell>
        <mxCell id="X-wp94Bt1LsfMgyJlWC4-10" value="5" style="text;html=1;strokeColor=none;fillColor=none;align=center;verticalAlign=middle;whiteSpace=wrap;rounded=0;" vertex="1" parent="1">
          <mxGeometry x="400" y="810" width="60" height="30" as="geometry" />
        </mxCell>
        <mxCell id="X-wp94Bt1LsfMgyJlWC4-11" value="6" style="text;html=1;strokeColor=none;fillColor=none;align=center;verticalAlign=middle;whiteSpace=wrap;rounded=0;" vertex="1" parent="1">
          <mxGeometry x="460" y="810" width="60" height="30" as="geometry" />
        </mxCell>
      </root>
    </mxGraphModel>
  </diagram>
</mxfile>
